# xmcd
#
# Track frame offsets:
#	150
#	21396
#	37272
#	52542
#	65730
#	80605
#	91493
#	110586
#	117994
#	135067
#	150592
#	172277
#	181437
#	196243
#	221889
#
# Disc length: 3129 seconds
#
# Revision: 0
# Processed by: cddbd v1.5.2PL0 Copyright (c) Steve Scherf et al.
# Submitted via: EasyCDDAExtractor 16.0.9.1
#
DISCID=d60c370f
DTITLE=Ray Charles and Betty Carter - N-095 Ray Charles and Betty Carter
DYEAR=1900
DGENRE=
TTITLE0=Ev'ry Time We Say Goodbye
TTITLE1=You and I
TTITLE2=Intro: Goodbye/We'll Be Togeth
TTITLE3=People Will Say We're in Love
TTITLE4=Cocktails for Two
TTITLE5=Side By Side
TTITLE6=Baby, It's Cold Outside
TTITLE7=Together
TTITLE8=For All We Know
TTITLE9=Takes Two to Tango
TTITLE10=Alone Together
TTITLE11=Just You, Just Me
TTITLE12=But on the Other Hand Baby
TTITLE13=I Never See Maggie Alone
TTITLE14=I Like to Hear it Sometime
EXTD=
EXTT0=
EXTT1=
EXTT2=
EXTT3=
EXTT4=
EXTT5=
EXTT6=
EXTT7=
EXTT8=
EXTT9=
EXTT10=
EXTT11=
EXTT12=
EXTT13=
EXTT14=
PLAYORDER=
